<?xml version="1.0" encoding="utf-8"?>
<!-- Generator: Adobe Illustrator 21.0.0, SVG Export Plug-In . SVG Version: 6.00 Build 0)  -->
<svg version="1.1"  xmlns="http://www.w3.org/2000/svg" xmlns:xlink="http://www.w3.org/1999/xlink" x="0px" y="0px"
	 width="99.3px" height="73.1px" viewBox="0 0 99.3 73.1" enable-background="new 0 0 99.3 73.1" xml:space="preserve">
<g>
	<path fill="#FFFFFF" d="M9.1,13.3c1.2,0.4,2.1,1.2,2.5,2.4c0.5,1.2,0.7,2.6,0.7,4.2c0,1.5-0.2,2.7-0.5,3.8c-0.3,1-0.8,1.9-1.3,2.5
		c-0.6,0.6-1.3,1.1-2.1,1.4s-1.7,0.4-2.8,0.4H0V0h5.7c1.2,0,2.1,0.2,3,0.5c0.8,0.3,1.5,0.8,2,1.4c0.5,0.6,0.8,1.3,1.1,2.2
		C11.9,4.9,12,5.9,12,7c0,1.5-0.2,2.7-0.6,3.8C11,11.8,10.2,12.7,9.1,13.3L9.1,13.3z M10.3,7c0-1.8-0.4-3.1-1.1-4
		C8.5,2,7.2,1.6,5.3,1.6H1.7v11H6c1.6,0,2.8-0.5,3.4-1.4C10,10.1,10.3,8.8,10.3,7z M10.7,19.8c0-1.9-0.4-3.3-1.1-4.3
		c-0.7-1-1.8-1.5-3.4-1.5H1.7v12.5h4c1,0,1.8-0.2,2.5-0.5c0.7-0.4,1.2-0.8,1.5-1.5c0.4-0.6,0.6-1.3,0.8-2.1
		C10.6,21.6,10.7,20.7,10.7,19.8z"/>
	<path fill="#FFFFFF" d="M29.2,0v21.7c0,2.2-0.5,3.8-1.6,4.9c-1.1,1.1-2.6,1.7-4.4,1.7s-3.3-0.5-4.4-1.6s-1.6-2.6-1.6-4.6V0h1.7
		v22.1c0,1.4,0.4,2.5,1.1,3.3c0.8,0.8,1.8,1.3,3.2,1.3c1.5,0,2.6-0.4,3.3-1.3c0.7-0.9,1.1-2.1,1.1-3.5V0H29.2z"/>
	<path fill="#FFFFFF" d="M40.4,0c1.6,0,2.9,0.3,3.8,0.9c0.9,0.6,1.6,1.6,1.9,2.9c0.3,1,0.4,2.4,0.4,4.1c0,1.7,0,3.7,0,6.1
		c0,2.3,0,4.3,0,6.1c0,1.8-0.1,3.1-0.4,4.1c-0.2,0.8-0.6,1.5-1,2c-0.4,0.5-0.9,0.9-1.4,1.2c-0.5,0.3-1.1,0.5-1.7,0.6
		c-0.6,0.1-1.3,0.2-2,0.2h-5.4V0H40.4z M44.8,7.2c0-0.8-0.1-1.6-0.2-2.2c-0.1-0.7-0.4-1.3-0.7-1.8S43.1,2.3,42.5,2
		c-0.6-0.3-1.3-0.4-2.2-0.4h-4v24.9h4.1c1.6,0,2.7-0.4,3.4-1.3c0.7-0.9,1.1-2.2,1.1-4.2V7.2z"/>
	<path fill="#FFFFFF" d="M57.8,0c1.6,0,2.9,0.3,3.8,0.9c0.9,0.6,1.6,1.6,1.9,2.9c0.3,1,0.4,2.4,0.4,4.1c0,1.7,0,3.7,0,6.1
		c0,2.3,0,4.3,0,6.1c0,1.8-0.1,3.1-0.4,4.1c-0.2,0.8-0.6,1.5-1,2c-0.4,0.5-0.9,0.9-1.4,1.2c-0.5,0.3-1.1,0.5-1.7,0.6
		c-0.6,0.1-1.3,0.2-2,0.2H52V0H57.8z M62.2,7.2c0-0.8-0.1-1.6-0.2-2.2c-0.1-0.7-0.4-1.3-0.7-1.8S60.5,2.3,59.9,2
		c-0.6-0.3-1.3-0.4-2.2-0.4h-4v24.9h4.1c1.6,0,2.7-0.4,3.4-1.3c0.7-0.9,1.1-2.2,1.1-4.2V7.2z"/>
	<path fill="#FFFFFF" d="M79.6,28.1V14.5H71v13.6h-1.7V0H71v12.9h8.6V0h1.7v28.1H79.6z"/>
	<path fill="#FFFFFF" d="M97.6,28.1l-1.5-7.3h-7.5L87,28.1h-1.6L91.4,0h1.9l6,28.1H97.6z M92.3,2.5l-1.4,7l-2,9.6h6.9l-2-9.7
		L92.3,2.5L92.3,2.5z"/>
	<path fill="#FFFFFF" d="M22.7,45c1.3,0,2.5,0.2,3.4,0.6c0.9,0.4,1.6,0.9,2.1,1.6c0.5,0.7,0.9,1.5,1.1,2.5c0.2,1,0.3,2.1,0.3,3.2
		c0,1.2-0.1,2.3-0.3,3.3c-0.2,1-0.6,1.9-1.1,2.6c-0.5,0.7-1.2,1.3-2.1,1.7c-0.9,0.4-2,0.6-3.4,0.6h-3.5V73h-1.7V45H22.7z M19.1,59.5
		h3.4c2,0,3.5-0.6,4.2-1.7c0.8-1.1,1.2-2.7,1.2-4.9c0-0.9-0.1-1.8-0.2-2.5c-0.2-0.8-0.4-1.5-0.8-2c-0.4-0.6-0.9-1-1.6-1.3
		c-0.7-0.3-1.6-0.5-2.6-0.5h-3.4V59.5z"/>
	<path fill="#FFFFFF" d="M34.6,73.1V45h1.7v28.1H34.6z"/>
	<path fill="#FFFFFF" d="M51.8,46.6l-9.1,24.9h8.6v1.6H41.1v-1.6l9.1-24.9h-8.3V45h10V46.6z"/>
	<path fill="#FFFFFF" d="M65.3,46.6l-9.1,24.9h8.6v1.6H54.6v-1.6l9.1-24.9h-8.3V45h10V46.6z"/>
	<path fill="#FFFFFF" d="M80.2,73.1l-1.5-7.3h-7.5l-1.5,7.3H68L73.9,45h1.9l6,28.1H80.2z M74.9,47.5l-1.4,7l-2,9.6h6.9l-2-9.7
		L74.9,47.5L74.9,47.5z"/>
</g>
</svg>
